<?xml version="1.0" encoding="utf-8" standalone="no"?>
<!DOCTYPE svg PUBLIC "-//W3C//DTD SVG 1.1//EN"
  "http://www.w3.org/Graphics/SVG/1.1/DTD/svg11.dtd">
<!-- Created with matplotlib (https://matplotlib.org/) -->
<svg height="345.6pt" version="1.1" viewBox="0 0 460.8 345.6" width="460.8pt" xmlns="http://www.w3.org/2000/svg" xmlns:xlink="http://www.w3.org/1999/xlink">
 <metadata>
  <rdf:RDF xmlns:cc="http://creativecommons.org/ns#" xmlns:dc="http://purl.org/dc/elements/1.1/" xmlns:rdf="http://www.w3.org/1999/02/22-rdf-syntax-ns#">
   <cc:Work>
    <dc:type rdf:resource="http://purl.org/dc/dcmitype/StillImage"/>
    <dc:date>2020-12-13T15:56:38.015911</dc:date>
    <dc:format>image/svg+xml</dc:format>
    <dc:creator>
     <cc:Agent>
      <dc:title>Matplotlib v3.3.3, https://matplotlib.org/</dc:title>
     </cc:Agent>
    </dc:creator>
   </cc:Work>
  </rdf:RDF>
 </metadata>
 <defs>
  <style type="text/css">*{stroke-linecap:butt;stroke-linejoin:round;}</style>
 </defs>
 <g id="figure_1">
  <g id="patch_1">
   <path d="M 0 345.6 
L 460.8 345.6 
L 460.8 0 
L 0 0 
z
" style="fill:#ffffff;"/>
  </g>
  <g id="axes_1">
   <g id="patch_2">
    <path d="M 57.6 307.584 
L 414.72 307.584 
L 414.72 41.472 
L 57.6 41.472 
z
" style="fill:#ffffff;"/>
   </g>
   <g id="PathCollection_1">
    <defs>
     <path d="M 0 3 
C 0.795609 3 1.55874 2.683901 2.12132 2.12132 
C 2.683901 1.55874 3 0.795609 3 0 
C 3 -0.795609 2.683901 -1.55874 2.12132 -2.12132 
C 1.55874 -2.683901 0.795609 -3 0 -3 
C -0.795609 -3 -1.55874 -2.683901 -2.12132 -2.12132 
C -2.683901 -1.55874 -3 -0.795609 -3 0 
C -3 0.795609 -2.683901 1.55874 -2.12132 2.12132 
C -1.55874 2.683901 -0.795609 3 0 3 
z
" id="mde82f6f36c" style="stroke:#000000;"/>
    </defs>
    <g clip-path="url(#pda064ebc9d)">
     <use style="stroke:#000000;" x="398.487273" xlink:href="#mde82f6f36c" y="295.488"/>
     <use style="stroke:#000000;" x="73.832727" xlink:href="#mde82f6f36c" y="68.472593"/>
     <use style="stroke:#000000;" x="130.386818" xlink:href="#mde82f6f36c" y="202.798515"/>
     <use style="stroke:#000000;" x="285.115057" xlink:href="#mde82f6f36c" y="71.577041"/>
     <use style="stroke:#000000;" x="398.487273" xlink:href="#mde82f6f36c" y="125.976243"/>
     <use style="stroke:#000000;" x="157.070455" xlink:href="#mde82f6f36c" y="253.362506"/>
     <use style="stroke:#000000;" x="246.488375" xlink:href="#mde82f6f36c" y="295.488"/>
     <use style="stroke:#000000;" x="216.274275" xlink:href="#mde82f6f36c" y="53.568"/>
    </g>
   </g>
   <g id="matplotlib.axis_1">
    <g id="xtick_1">
     <g id="line2d_1">
      <defs>
       <path d="M 0 0 
L 0 3.5 
" id="mfeb96da692" style="stroke:#000000;stroke-width:0.8;"/>
      </defs>
      <g>
       <use style="stroke:#000000;stroke-width:0.8;" x="68.649928" xlink:href="#mfeb96da692" y="307.584"/>
      </g>
     </g>
     <g id="text_1">
      <!-- −10 -->
      <g transform="translate(45.434772 331.300562)scale(0.22 -0.22)">
       <defs>
        <path d="M 10.59375 35.5 
L 73.1875 35.5 
L 73.1875 27.203125 
L 10.59375 27.203125 
z
" id="DejaVuSans-8722"/>
        <path d="M 12.40625 8.296875 
L 28.515625 8.296875 
L 28.515625 63.921875 
L 10.984375 60.40625 
L 10.984375 69.390625 
L 28.421875 72.90625 
L 38.28125 72.90625 
L 38.28125 8.296875 
L 54.390625 8.296875 
L 54.390625 0 
L 12.40625 0 
z
" id="DejaVuSans-49"/>
        <path d="M 31.78125 66.40625 
Q 24.171875 66.40625 20.328125 58.90625 
Q 16.5 51.421875 16.5 36.375 
Q 16.5 21.390625 20.328125 13.890625 
Q 24.171875 6.390625 31.78125 6.390625 
Q 39.453125 6.390625 43.28125 13.890625 
Q 47.125 21.390625 47.125 36.375 
Q 47.125 51.421875 43.28125 58.90625 
Q 39.453125 66.40625 31.78125 66.40625 
z
M 31.78125 74.21875 
Q 44.046875 74.21875 50.515625 64.515625 
Q 56.984375 54.828125 56.984375 36.375 
Q 56.984375 17.96875 50.515625 8.265625 
Q 44.046875 -1.421875 31.78125 -1.421875 
Q 19.53125 -1.421875 13.0625 8.265625 
Q 6.59375 17.96875 6.59375 36.375 
Q 6.59375 54.828125 13.0625 64.515625 
Q 19.53125 74.21875 31.78125 74.21875 
z
" id="DejaVuSans-48"/>
       </defs>
       <use xlink:href="#DejaVuSans-8722"/>
       <use x="83.789062" xlink:href="#DejaVuSans-49"/>
       <use x="147.412109" xlink:href="#DejaVuSans-48"/>
      </g>
     </g>
    </g>
    <g id="xtick_2">
     <g id="line2d_2">
      <g>
       <use style="stroke:#000000;stroke-width:0.8;" x="151.109264" xlink:href="#mfeb96da692" y="307.584"/>
      </g>
     </g>
     <g id="text_2">
      <!-- −5 -->
      <g transform="translate(134.892858 331.300562)scale(0.22 -0.22)">
       <defs>
        <path d="M 10.796875 72.90625 
L 49.515625 72.90625 
L 49.515625 64.59375 
L 19.828125 64.59375 
L 19.828125 46.734375 
Q 21.96875 47.46875 24.109375 47.828125 
Q 26.265625 48.1875 28.421875 48.1875 
Q 40.625 48.1875 47.75 41.5 
Q 54.890625 34.8125 54.890625 23.390625 
Q 54.890625 11.625 47.5625 5.09375 
Q 40.234375 -1.421875 26.90625 -1.421875 
Q 22.3125 -1.421875 17.546875 -0.640625 
Q 12.796875 0.140625 7.71875 1.703125 
L 7.71875 11.625 
Q 12.109375 9.234375 16.796875 8.0625 
Q 21.484375 6.890625 26.703125 6.890625 
Q 35.15625 6.890625 40.078125 11.328125 
Q 45.015625 15.765625 45.015625 23.390625 
Q 45.015625 31 40.078125 35.4375 
Q 35.15625 39.890625 26.703125 39.890625 
Q 22.75 39.890625 18.8125 39.015625 
Q 14.890625 38.140625 10.796875 36.28125 
z
" id="DejaVuSans-53"/>
       </defs>
       <use xlink:href="#DejaVuSans-8722"/>
       <use x="83.789062" xlink:href="#DejaVuSans-53"/>
      </g>
     </g>
    </g>
    <g id="xtick_3">
     <g id="line2d_3">
      <g>
       <use style="stroke:#000000;stroke-width:0.8;" x="233.5686" xlink:href="#mfeb96da692" y="307.584"/>
      </g>
     </g>
     <g id="text_3">
      <!-- 0 -->
      <g transform="translate(226.56985 331.300562)scale(0.22 -0.22)">
       <use xlink:href="#DejaVuSans-48"/>
      </g>
     </g>
    </g>
    <g id="xtick_4">
     <g id="line2d_4">
      <g>
       <use style="stroke:#000000;stroke-width:0.8;" x="316.027937" xlink:href="#mfeb96da692" y="307.584"/>
      </g>
     </g>
     <g id="text_4">
      <!-- 5 -->
      <g transform="translate(309.029187 331.300562)scale(0.22 -0.22)">
       <use xlink:href="#DejaVuSans-53"/>
      </g>
     </g>
    </g>
    <g id="xtick_5">
     <g id="line2d_5">
      <g>
       <use style="stroke:#000000;stroke-width:0.8;" x="398.487273" xlink:href="#mfeb96da692" y="307.584"/>
      </g>
     </g>
     <g id="text_5">
      <!-- 10 -->
      <g transform="translate(384.489773 331.300562)scale(0.22 -0.22)">
       <use xlink:href="#DejaVuSans-49"/>
       <use x="63.623047" xlink:href="#DejaVuSans-48"/>
      </g>
     </g>
    </g>
    <g id="text_6">
     <!-- B -->
     <g transform="translate(228.612969 356.592437)scale(0.22 -0.22)">
      <defs>
       <path d="M 19.671875 34.8125 
L 19.671875 8.109375 
L 35.5 8.109375 
Q 43.453125 8.109375 47.28125 11.40625 
Q 51.125 14.703125 51.125 21.484375 
Q 51.125 28.328125 47.28125 31.5625 
Q 43.453125 34.8125 35.5 34.8125 
z
M 19.671875 64.796875 
L 19.671875 42.828125 
L 34.28125 42.828125 
Q 41.5 42.828125 45.03125 45.53125 
Q 48.578125 48.25 48.578125 53.8125 
Q 48.578125 59.328125 45.03125 62.0625 
Q 41.5 64.796875 34.28125 64.796875 
z
M 9.8125 72.90625 
L 35.015625 72.90625 
Q 46.296875 72.90625 52.390625 68.21875 
Q 58.5 63.53125 58.5 54.890625 
Q 58.5 48.1875 55.375 44.234375 
Q 52.25 40.28125 46.1875 39.3125 
Q 53.46875 37.75 57.5 32.78125 
Q 61.53125 27.828125 61.53125 20.40625 
Q 61.53125 10.640625 54.890625 5.3125 
Q 48.25 0 35.984375 0 
L 9.8125 0 
z
" id="DejaVuSans-66"/>
      </defs>
      <use xlink:href="#DejaVuSans-66"/>
     </g>
    </g>
   </g>
   <g id="matplotlib.axis_2">
    <g id="ytick_1">
     <g id="line2d_6">
      <defs>
       <path d="M 0 0 
L -3.5 0 
" id="mfd27140b4c" style="stroke:#000000;stroke-width:0.8;"/>
      </defs>
      <g>
       <use style="stroke:#000000;stroke-width:0.8;" x="57.6" xlink:href="#mfd27140b4c" y="295.488"/>
      </g>
     </g>
     <g id="text_7">
      <!-- −10 -->
      <g transform="translate(4.169688 303.846281)scale(0.22 -0.22)">
       <use xlink:href="#DejaVuSans-8722"/>
       <use x="83.789062" xlink:href="#DejaVuSans-49"/>
       <use x="147.412109" xlink:href="#DejaVuSans-48"/>
      </g>
     </g>
    </g>
    <g id="ytick_2">
     <g id="line2d_7">
      <g>
       <use style="stroke:#000000;stroke-width:0.8;" x="57.6" xlink:href="#mfd27140b4c" y="232.268719"/>
      </g>
     </g>
     <g id="text_8">
      <!-- −5 -->
      <g transform="translate(18.167188 240.627)scale(0.22 -0.22)">
       <use xlink:href="#DejaVuSans-8722"/>
       <use x="83.789062" xlink:href="#DejaVuSans-53"/>
      </g>
     </g>
    </g>
    <g id="ytick_3">
     <g id="line2d_8">
      <g>
       <use style="stroke:#000000;stroke-width:0.8;" x="57.6" xlink:href="#mfd27140b4c" y="169.049437"/>
      </g>
     </g>
     <g id="text_9">
      <!-- 0 -->
      <g transform="translate(36.6025 177.407718)scale(0.22 -0.22)">
       <use xlink:href="#DejaVuSans-48"/>
      </g>
     </g>
    </g>
    <g id="ytick_4">
     <g id="line2d_9">
      <g>
       <use style="stroke:#000000;stroke-width:0.8;" x="57.6" xlink:href="#mfd27140b4c" y="105.830156"/>
      </g>
     </g>
     <g id="text_10">
      <!-- 5 -->
      <g transform="translate(36.6025 114.188437)scale(0.22 -0.22)">
       <use xlink:href="#DejaVuSans-53"/>
      </g>
     </g>
    </g>
    <g id="ytick_5">
     <g id="line2d_10">
      <g>
       <use style="stroke:#000000;stroke-width:0.8;" x="57.6" xlink:href="#mfd27140b4c" y="42.610874"/>
      </g>
     </g>
     <g id="text_11">
      <!-- 10 -->
      <g transform="translate(22.605 50.969155)scale(0.22 -0.22)">
       <use xlink:href="#DejaVuSans-49"/>
       <use x="63.623047" xlink:href="#DejaVuSans-48"/>
      </g>
     </g>
    </g>
    <g id="text_12">
     <!-- D -->
     <g transform="translate(-4.405625 182.998)rotate(-90)scale(0.22 -0.22)">
      <defs>
       <path d="M 19.671875 64.796875 
L 19.671875 8.109375 
L 31.59375 8.109375 
Q 46.6875 8.109375 53.6875 14.9375 
Q 60.6875 21.78125 60.6875 36.53125 
Q 60.6875 51.171875 53.6875 57.984375 
Q 46.6875 64.796875 31.59375 64.796875 
z
M 9.8125 72.90625 
L 30.078125 72.90625 
Q 51.265625 72.90625 61.171875 64.09375 
Q 71.09375 55.28125 71.09375 36.53125 
Q 71.09375 17.671875 61.125 8.828125 
Q 51.171875 0 30.078125 0 
L 9.8125 0 
z
" id="DejaVuSans-68"/>
      </defs>
      <use xlink:href="#DejaVuSans-68"/>
     </g>
    </g>
   </g>
   <g id="LineCollection_1">
    <path clip-path="url(#pda064ebc9d)" d="M 285.115057 71.577041 
L 398.487273 125.976243 
" style="fill:none;stroke:#1f77b4;stroke-width:1.5;"/>
    <path clip-path="url(#pda064ebc9d)" d="M 246.488375 295.488 
L 157.070455 253.362506 
" style="fill:none;stroke:#1f77b4;stroke-width:1.5;"/>
    <path clip-path="url(#pda064ebc9d)" d="M 285.115057 71.577041 
L 216.274275 53.568 
" style="fill:none;stroke:#1f77b4;stroke-width:1.5;"/>
    <path clip-path="url(#pda064ebc9d)" d="M 157.070455 253.362506 
L 130.386818 202.798515 
" style="fill:none;stroke:#1f77b4;stroke-width:1.5;"/>
    <path clip-path="url(#pda064ebc9d)" d="M 73.832727 68.472593 
L 130.386818 202.798515 
" style="fill:none;stroke:#1f77b4;stroke-width:1.5;"/>
    <path clip-path="url(#pda064ebc9d)" d="M 398.487273 295.488 
L 246.488375 295.488 
" style="fill:none;stroke:#1f77b4;stroke-width:1.5;"/>
    <path clip-path="url(#pda064ebc9d)" d="M 398.487273 295.488 
L 398.487273 125.976243 
" style="fill:none;stroke:#1f77b4;stroke-width:1.5;"/>
    <path clip-path="url(#pda064ebc9d)" d="M 73.832727 68.472593 
L 216.274275 53.568 
" style="fill:none;stroke:#1f77b4;stroke-width:1.5;"/>
   </g>
   <g id="line2d_11">
    <path clip-path="url(#pda064ebc9d)" d="M 73.832727 68.472593 
L 73.832727 68.472593 
" style="fill:none;stroke:#808080;stroke-dasharray:1,1.65;stroke-dashoffset:0;"/>
    <defs>
     <path d="M -1.25 2.5 
L 0 1.25 
L 1.25 2.5 
L 2.5 1.25 
L 1.25 0 
L 2.5 -1.25 
L 1.25 -2.5 
L 0 -1.25 
L -1.25 -2.5 
L -2.5 -1.25 
L -1.25 0 
L -2.5 1.25 
z
" id="m9c833f35a7" style="stroke:#808080;stroke-linejoin:miter;"/>
    </defs>
    <g clip-path="url(#pda064ebc9d)">
     <use style="fill:#808080;stroke:#808080;stroke-linejoin:miter;" x="73.832727" xlink:href="#m9c833f35a7" y="68.472593"/>
     <use style="fill:#808080;stroke:#808080;stroke-linejoin:miter;" x="73.832727" xlink:href="#m9c833f35a7" y="68.472593"/>
    </g>
   </g>
   <g id="line2d_12">
    <path clip-path="url(#pda064ebc9d)" d="M 109.905455 154.151672 
L 109.905455 64.698067 
" style="fill:none;stroke:#808080;stroke-dasharray:1,1.65;stroke-dashoffset:0;"/>
    <g clip-path="url(#pda064ebc9d)">
     <use style="fill:#808080;stroke:#808080;stroke-linejoin:miter;" x="109.905455" xlink:href="#m9c833f35a7" y="154.151672"/>
     <use style="fill:#808080;stroke:#808080;stroke-linejoin:miter;" x="109.905455" xlink:href="#m9c833f35a7" y="64.698067"/>
    </g>
   </g>
   <g id="line2d_13">
    <path clip-path="url(#pda064ebc9d)" d="M 145.978182 232.343272 
L 145.978182 60.923541 
" style="fill:none;stroke:#808080;stroke-dasharray:1,1.65;stroke-dashoffset:0;"/>
    <g clip-path="url(#pda064ebc9d)">
     <use style="fill:#808080;stroke:#808080;stroke-linejoin:miter;" x="145.978182" xlink:href="#m9c833f35a7" y="232.343272"/>
     <use style="fill:#808080;stroke:#808080;stroke-linejoin:miter;" x="145.978182" xlink:href="#m9c833f35a7" y="60.923541"/>
    </g>
   </g>
   <g id="line2d_14">
    <path clip-path="url(#pda064ebc9d)" d="M 182.050909 265.130996 
L 182.050909 57.149015 
" style="fill:none;stroke:#808080;stroke-dasharray:1,1.65;stroke-dashoffset:0;"/>
    <g clip-path="url(#pda064ebc9d)">
     <use style="fill:#808080;stroke:#808080;stroke-linejoin:miter;" x="182.050909" xlink:href="#m9c833f35a7" y="265.130996"/>
     <use style="fill:#808080;stroke:#808080;stroke-linejoin:miter;" x="182.050909" xlink:href="#m9c833f35a7" y="57.149015"/>
    </g>
   </g>
   <g id="line2d_15">
    <path clip-path="url(#pda064ebc9d)" d="M 218.123636 282.125146 
L 218.123636 54.051801 
" style="fill:none;stroke:#808080;stroke-dasharray:1,1.65;stroke-dashoffset:0;"/>
    <g clip-path="url(#pda064ebc9d)">
     <use style="fill:#808080;stroke:#808080;stroke-linejoin:miter;" x="218.123636" xlink:href="#m9c833f35a7" y="282.125146"/>
     <use style="fill:#808080;stroke:#808080;stroke-linejoin:miter;" x="218.123636" xlink:href="#m9c833f35a7" y="54.051801"/>
    </g>
   </g>
   <g id="line2d_16">
    <path clip-path="url(#pda064ebc9d)" d="M 254.196364 295.488 
L 254.196364 63.48858 
" style="fill:none;stroke:#808080;stroke-dasharray:1,1.65;stroke-dashoffset:0;"/>
    <g clip-path="url(#pda064ebc9d)">
     <use style="fill:#808080;stroke:#808080;stroke-linejoin:miter;" x="254.196364" xlink:href="#m9c833f35a7" y="295.488"/>
     <use style="fill:#808080;stroke:#808080;stroke-linejoin:miter;" x="254.196364" xlink:href="#m9c833f35a7" y="63.48858"/>
    </g>
   </g>
   <g id="line2d_17">
    <path clip-path="url(#pda064ebc9d)" d="M 290.269091 295.488 
L 290.269091 74.050093 
" style="fill:none;stroke:#808080;stroke-dasharray:1,1.65;stroke-dashoffset:0;"/>
    <g clip-path="url(#pda064ebc9d)">
     <use style="fill:#808080;stroke:#808080;stroke-linejoin:miter;" x="290.269091" xlink:href="#m9c833f35a7" y="295.488"/>
     <use style="fill:#808080;stroke:#808080;stroke-linejoin:miter;" x="290.269091" xlink:href="#m9c833f35a7" y="74.050093"/>
    </g>
   </g>
   <g id="line2d_18">
    <path clip-path="url(#pda064ebc9d)" d="M 326.341818 295.488 
L 326.341818 91.358809 
" style="fill:none;stroke:#808080;stroke-dasharray:1,1.65;stroke-dashoffset:0;"/>
    <g clip-path="url(#pda064ebc9d)">
     <use style="fill:#808080;stroke:#808080;stroke-linejoin:miter;" x="326.341818" xlink:href="#m9c833f35a7" y="295.488"/>
     <use style="fill:#808080;stroke:#808080;stroke-linejoin:miter;" x="326.341818" xlink:href="#m9c833f35a7" y="91.358809"/>
    </g>
   </g>
   <g id="line2d_19">
    <path clip-path="url(#pda064ebc9d)" d="M 362.414545 295.488 
L 362.414545 108.667526 
" style="fill:none;stroke:#808080;stroke-dasharray:1,1.65;stroke-dashoffset:0;"/>
    <g clip-path="url(#pda064ebc9d)">
     <use style="fill:#808080;stroke:#808080;stroke-linejoin:miter;" x="362.414545" xlink:href="#m9c833f35a7" y="295.488"/>
     <use style="fill:#808080;stroke:#808080;stroke-linejoin:miter;" x="362.414545" xlink:href="#m9c833f35a7" y="108.667526"/>
    </g>
   </g>
   <g id="line2d_20">
    <path clip-path="url(#pda064ebc9d)" d="M 398.487273 295.488 
L 398.487273 125.976243 
" style="fill:none;stroke:#808080;stroke-dasharray:1,1.65;stroke-dashoffset:0;"/>
    <g clip-path="url(#pda064ebc9d)">
     <use style="fill:#808080;stroke:#808080;stroke-linejoin:miter;" x="398.487273" xlink:href="#m9c833f35a7" y="295.488"/>
     <use style="fill:#808080;stroke:#808080;stroke-linejoin:miter;" x="398.487273" xlink:href="#m9c833f35a7" y="125.976243"/>
    </g>
   </g>
   <g id="patch_3">
    <path d="M 57.6 307.584 
L 57.6 41.472 
" style="fill:none;stroke:#000000;stroke-linecap:square;stroke-linejoin:miter;stroke-width:0.8;"/>
   </g>
   <g id="patch_4">
    <path d="M 414.72 307.584 
L 414.72 41.472 
" style="fill:none;stroke:#000000;stroke-linecap:square;stroke-linejoin:miter;stroke-width:0.8;"/>
   </g>
   <g id="patch_5">
    <path d="M 57.6 307.584 
L 414.72 307.584 
" style="fill:none;stroke:#000000;stroke-linecap:square;stroke-linejoin:miter;stroke-width:0.8;"/>
   </g>
   <g id="patch_6">
    <path d="M 57.6 41.472 
L 414.72 41.472 
" style="fill:none;stroke:#000000;stroke-linecap:square;stroke-linejoin:miter;stroke-width:0.8;"/>
   </g>
  </g>
 </g>
 <defs>
  <clipPath id="pda064ebc9d">
   <rect height="266.112" width="357.12" x="57.6" y="41.472"/>
  </clipPath>
 </defs>
</svg>
